<svg width="16" height="16" viewBox="0 0 16 16" fill="none" xmlns="http://www.w3.org/2000/svg">
<path fill-rule="evenodd" clip-rule="evenodd" d="M1.88498 0.511147C2.05996 0.336436 2.27006 0.200905 2.50138 0.113537C2.7327 0.0261686 2.97994 -0.0110424 3.22672 0.00436978C3.47351 0.019782 3.7142 0.0874655 3.93285 0.202935C4.15149 0.318404 4.34311 0.479023 4.49498 0.674147L6.28998 2.98015C6.61898 3.40315 6.73498 3.95415 6.60498 4.47415L6.05798 6.66415C6.0299 6.77759 6.03153 6.89635 6.0627 7.00898C6.09388 7.12161 6.15356 7.2243 6.23598 7.30715L8.69298 9.76415C8.77593 9.84674 8.87879 9.90651 8.99161 9.9377C9.10443 9.96888 9.2234 9.97041 9.33698 9.94215L11.526 9.39515C11.7826 9.33136 12.0504 9.32656 12.3091 9.38112C12.5679 9.43568 12.8109 9.54817 13.02 9.71015L15.326 11.5041C16.155 12.1491 16.231 13.3741 15.489 14.1151L14.455 15.1491C13.715 15.8891 12.609 16.2141 11.578 15.8511C8.93865 14.9237 6.54252 13.4129 4.56798 11.4311C2.58636 9.4569 1.07553 7.06112 0.147983 4.42215C-0.214017 3.39215 0.110983 2.28515 0.850983 1.54515L1.88498 0.511147Z" fill="black" fill-opacity="0.5"/>
</svg>
