<svg width="56" height="22" viewBox="0 0 56 22" fill="none" xmlns="http://www.w3.org/2000/svg">
<g clip-path="url(#clip0_272_330)">
<path d="M10 0.921875C7.34844 0.921875 4.80312 1.97609 2.92969 3.85078C1.05433 5.72622 0.000536638 8.26966 0 10.9219C0 13.573 1.05469 16.1183 2.92969 17.993C4.80312 19.8677 7.34844 20.9219 10 20.9219C12.6516 20.9219 15.1969 19.8677 17.0703 17.993C18.9453 16.1183 20 13.573 20 10.9219C20 8.27078 18.9453 5.72547 17.0703 3.85078C15.1969 1.97609 12.6516 0.921875 10 0.921875Z" fill="url(#paint0_linear_272_330)"/>
<path d="M4.5267 10.8164C7.44232 9.54641 9.38607 8.70912 10.3579 8.30453C13.1361 7.14938 13.7126 6.94875 14.0892 6.94195C14.172 6.94063 14.3564 6.96109 14.4767 7.05836C14.5767 7.14039 14.6048 7.25133 14.6189 7.32922C14.6314 7.40703 14.6486 7.58438 14.6345 7.72281C14.4845 9.30406 13.8329 13.1413 13.5017 14.9123C13.3626 15.6617 13.0861 15.913 12.8189 15.9375C12.2376 15.9909 11.797 15.5538 11.2345 15.1852C10.3548 14.6081 9.85795 14.2491 9.00326 13.6861C8.01576 13.0355 8.65639 12.6778 9.21889 12.0934C9.36576 11.9405 11.9251 9.61313 11.9736 9.40203C11.9798 9.37563 11.9861 9.27719 11.9267 9.22531C11.8689 9.17328 11.7829 9.19109 11.7204 9.20516C11.6314 9.22516 10.2267 10.1545 7.5017 11.9931C7.10326 12.2672 6.74232 12.4008 6.41732 12.3938C6.06107 12.3861 5.37357 12.1919 4.86264 12.0259C4.23764 11.8223 3.7392 11.7147 3.78295 11.3689C3.80482 11.1889 4.05326 11.0047 4.5267 10.8164Z" fill="white"/>
</g>
<g clip-path="url(#clip1_272_330)">
<path d="M12.4267 10.8792C12.4262 12.5727 12.8687 14.2263 13.7101 15.6838L12.3462 20.6637L17.4424 19.3274C18.852 20.0948 20.4313 20.4968 22.0362 20.497H22.0404C27.3385 20.497 31.6512 16.1858 31.6535 10.8868C31.6545 8.31906 30.6554 5.90453 28.8403 4.08797C27.0254 2.27156 24.6117 1.2707 22.04 1.26953C16.7413 1.26953 12.4289 5.58047 12.4267 10.8792" fill="url(#paint1_linear_272_330)"/>
<path d="M12.0836 10.8763C12.083 12.6307 12.5414 14.3434 13.4128 15.8531L12 21.0115L17.279 19.6273C18.7335 20.4204 20.3712 20.8385 22.0376 20.8391H22.0419C27.53 20.8391 31.9977 16.3729 32 10.8842C32.0009 8.22422 30.9659 5.72289 29.0859 3.84125C27.2057 1.95984 24.7057 0.922969 22.0419 0.921875C16.5528 0.921875 12.0858 5.3875 12.0836 10.8763ZM15.2274 15.5931L15.0303 15.2802C14.2017 13.9627 13.7644 12.4402 13.765 10.8769C13.7667 6.31477 17.4795 2.60313 22.045 2.60313C24.2559 2.60406 26.3337 3.46594 27.8966 5.02969C29.4593 6.59359 30.3192 8.6725 30.3187 10.8836C30.3166 15.4457 26.6037 19.1578 22.0419 19.1578H22.0386C20.5532 19.157 19.0964 18.7581 17.8259 18.0043L17.5236 17.825L14.3909 18.6463L15.2274 15.5931Z" fill="url(#paint2_linear_272_330)"/>
<path d="M19.553 6.71452C19.3666 6.30022 19.1704 6.29186 18.9932 6.2846C18.848 6.27835 18.6821 6.27882 18.5163 6.27882C18.3504 6.27882 18.0808 6.34124 17.8529 6.59007C17.6247 6.83913 16.9819 7.441 16.9819 8.66514C16.9819 9.88929 17.8736 11.0724 17.9979 11.2386C18.1223 11.4044 19.7192 13.9969 22.2483 14.9943C24.3501 15.8231 24.7779 15.6583 25.234 15.6167C25.6903 15.5753 26.7062 15.015 26.9135 14.434C27.1209 13.853 27.1209 13.3551 27.0587 13.251C26.9965 13.1473 26.8306 13.0851 26.5818 12.9607C26.3329 12.8363 25.1096 12.2343 24.8815 12.1512C24.6534 12.0683 24.4876 12.0269 24.3216 12.276C24.1557 12.5248 23.6792 13.0851 23.534 13.251C23.3889 13.4173 23.2437 13.438 22.9949 13.3136C22.7459 13.1887 21.9446 12.9263 20.9939 12.0787C20.2542 11.4192 19.7548 10.6048 19.6097 10.3556C19.4645 10.1069 19.5941 9.97202 19.7189 9.84804C19.8307 9.73655 19.9678 9.55749 20.0923 9.41225C20.2164 9.26694 20.2578 9.16327 20.3408 8.99733C20.4238 8.83124 20.3822 8.68593 20.3201 8.56147C20.2578 8.43702 19.7743 7.20647 19.553 6.71452Z" fill="white"/>
</g>
<g clip-path="url(#clip2_272_330)">
<path d="M40 3.92188L27 4.38854V17.9219H40V3.92188Z" fill="white"/>
<path fill-rule="evenodd" clip-rule="evenodd" d="M35.1562 7.91625C35.5456 7.99922 35.8441 8.14719 36.0991 8.38594C36.4272 8.69578 36.607 9.07078 36.6861 9.60953C36.7395 9.96078 36.7177 10.0989 36.5931 10.2134C36.4766 10.32 36.2611 10.3239 36.1306 10.2233C36.0358 10.1522 36.0061 10.0772 35.9844 9.87391C35.9587 9.60344 35.9112 9.41406 35.8302 9.23844C35.6562 8.86547 35.3498 8.67203 34.832 8.60891C34.5889 8.57922 34.5158 8.55172 34.4367 8.45891C34.2923 8.28719 34.3478 8.00891 34.5473 7.90625C34.6225 7.86875 34.6541 7.86484 34.8202 7.87469C34.9231 7.88063 35.0753 7.89844 35.1562 7.91625ZM34.7353 6.42609C35.9352 6.60172 36.8641 7.15828 37.473 8.06219C37.815 8.57141 38.0284 9.16938 38.1016 9.81078C38.1272 10.0456 38.1272 10.4739 38.0995 10.545C38.0737 10.612 37.9908 10.7028 37.9197 10.7403C37.8427 10.7798 37.6786 10.7758 37.5877 10.7284C37.4355 10.6514 37.39 10.5291 37.39 10.1975C37.39 9.68641 37.2575 9.1475 37.0283 8.72906C36.7673 8.25141 36.3878 7.85672 35.9253 7.58234C35.528 7.34547 34.9409 7.16984 34.4053 7.12641C34.2116 7.11062 34.1048 7.07109 34.0317 6.98625C33.9191 6.85797 33.9072 6.68422 34.002 6.54016C34.1047 6.38078 34.2628 6.355 34.7353 6.42609ZM30.0803 5.20844C30.1495 5.23219 30.2562 5.28734 30.3175 5.32687C30.693 5.57562 31.7386 6.91172 32.0806 7.57875C32.2762 7.95969 32.3416 8.24188 32.2803 8.45109C32.217 8.67609 32.1123 8.79453 31.6437 9.17141C31.4559 9.32328 31.28 9.47922 31.2523 9.52078C31.1813 9.62344 31.1239 9.82469 31.1239 9.96688C31.1259 10.2964 31.3394 10.8945 31.62 11.3544C31.8373 11.7116 32.2267 12.1694 32.6122 12.5208C33.0648 12.9353 33.4641 13.2175 33.9148 13.4405C34.4941 13.7286 34.8478 13.8016 35.1067 13.6813C35.1719 13.6516 35.2411 13.6122 35.2628 13.5944C35.2825 13.5766 35.4348 13.3911 35.6008 13.1858C35.9209 12.7831 35.9941 12.718 36.2136 12.643C36.4923 12.5483 36.7769 12.5739 37.0636 12.72C37.2811 12.8325 37.7555 13.1266 38.0617 13.3397C38.465 13.6219 39.3267 14.3245 39.4434 14.4647C39.6489 14.7173 39.6845 15.0409 39.5463 15.3983C39.4 15.7752 38.8308 16.4817 38.4334 16.7837C38.0738 17.0561 37.8188 17.1606 37.4827 17.1764C37.2059 17.1902 37.0912 17.1666 36.7375 17.0205C33.9625 15.8778 31.7467 14.1727 29.9875 11.8298C29.0684 10.6062 28.3686 9.33719 27.8903 8.02078C27.6116 7.25312 27.5978 6.91953 27.827 6.52672C27.9259 6.36094 28.3469 5.95047 28.6533 5.72156C29.1633 5.34266 29.3984 5.2025 29.5862 5.16297C29.7147 5.13531 29.9381 5.15703 30.0803 5.20844ZM34.5989 4.99531C35.2789 5.08016 35.8283 5.24391 36.4312 5.53813C37.0242 5.82828 37.4038 6.10266 37.9058 6.60188C38.3763 7.07359 38.6372 7.43078 38.9139 7.98531C39.2994 8.75891 39.5187 9.67875 39.5562 10.6911C39.5702 11.0364 39.5602 11.1134 39.4811 11.2122C39.3309 11.4036 39.0008 11.372 38.8881 11.1569C38.8525 11.0858 38.8427 11.0247 38.8308 10.7483C38.8109 10.3239 38.7814 10.0497 38.722 9.72203C38.4888 8.43719 37.872 7.41094 36.8877 6.67469C36.0673 6.05891 35.2194 5.75891 34.1086 5.69375C33.733 5.67203 33.6678 5.65828 33.5828 5.59312C33.4247 5.46875 33.4167 5.17672 33.5689 5.04047C33.6619 4.95563 33.727 4.94375 34.0492 4.95359C34.2175 4.95969 34.4645 4.97953 34.5989 4.99531ZM34 0.921875C39.5228 0.921875 44 5.39906 44 10.9219C44 16.4447 39.5228 20.9219 34 20.9219C28.4772 20.9219 24 16.4447 24 10.9219C24 5.39906 28.4772 0.921875 34 0.921875Z" fill="#794F9C"/>
</g>
<g clip-path="url(#clip3_272_330)">
<path d="M46 0.921875C40.3667 0.921875 36 5.04828 36 10.6219C36 13.5373 37.1948 16.0564 39.1406 17.7965C39.3039 17.9427 39.4025 18.1475 39.4092 18.3666L39.4637 20.1455C39.4811 20.7129 40.0671 21.0821 40.5863 20.8529L42.5712 19.9766C42.7394 19.9024 42.9281 19.8886 43.1053 19.9374C44.0174 20.1882 44.9881 20.3218 46 20.3218C51.6333 20.3218 56 16.1954 56 10.6218C56 5.0482 51.6333 0.921875 46 0.921875Z" fill="#0099FF"/>
<path d="M39.9952 13.4586L42.9327 8.79825C43.3999 8.05684 44.4005 7.87223 45.1016 8.39802L47.4379 10.1504C47.5423 10.2286 47.6693 10.2707 47.7997 10.2704C47.9301 10.27 48.0569 10.2271 48.1607 10.1482L51.3161 7.75356C51.7371 7.43395 52.287 7.93794 52.0051 8.3852L49.0676 13.0457C48.6004 13.787 47.5996 13.9716 46.8986 13.4458L44.5622 11.6935C44.4579 11.6153 44.3309 11.5732 44.2005 11.5735C44.0702 11.5739 43.9434 11.6168 43.8396 11.6956L40.6841 14.0903C40.263 14.4098 39.7132 13.9059 39.9952 13.4586Z" fill="white"/>
</g>
<defs>
<linearGradient id="paint0_linear_272_330" x1="1000" y1="0.921875" x2="1000" y2="2000.92" gradientUnits="userSpaceOnUse">
<stop stop-color="#2AABEE"/>
<stop offset="1" stop-color="#229ED9"/>
</linearGradient>
<linearGradient id="paint1_linear_272_330" x1="977.71" y1="1940.68" x2="977.71" y2="1.26953" gradientUnits="userSpaceOnUse">
<stop stop-color="#1FAF38"/>
<stop offset="1" stop-color="#60D669"/>
</linearGradient>
<linearGradient id="paint2_linear_272_330" x1="1012" y1="2009.88" x2="1012" y2="0.921875" gradientUnits="userSpaceOnUse">
<stop stop-color="#F9F9F9"/>
<stop offset="1" stop-color="white"/>
</linearGradient>
<clipPath id="clip0_272_330">
<rect width="20" height="20" fill="white" transform="translate(0 0.921875)"/>
</clipPath>
<clipPath id="clip1_272_330">
<rect width="20" height="20.1562" fill="white" transform="translate(12 0.921875)"/>
</clipPath>
<clipPath id="clip2_272_330">
<rect width="20" height="20" fill="white" transform="translate(24 0.921875)"/>
</clipPath>
<clipPath id="clip3_272_330">
<rect width="20" height="20" fill="white" transform="translate(36 0.921875)"/>
</clipPath>
</defs>
</svg>
