<svg width="8" height="14" viewBox="0 0 8 14" fill="none" xmlns="http://www.w3.org/2000/svg">
<path d="M0.515268 12.5422C0.455122 12.6058 0.408103 12.6807 0.376893 12.7625C0.345682 12.8443 0.330893 12.9315 0.333369 13.019C0.335845 13.1066 0.355538 13.1927 0.391324 13.2727C0.42711 13.3526 0.478287 13.4247 0.541935 13.4848C0.605582 13.545 0.680453 13.592 0.762272 13.6232C0.844091 13.6544 0.931256 13.6692 1.01879 13.6667C1.10633 13.6642 1.19252 13.6446 1.27244 13.6088C1.35236 13.573 1.42446 13.5218 1.4846 13.4582L7.15127 7.45816C7.26829 7.33438 7.3335 7.1705 7.3335 7.00016C7.3335 6.82982 7.26829 6.66594 7.15127 6.54216L1.4846 0.541493C1.42485 0.476453 1.35278 0.423931 1.27256 0.386981C1.19234 0.350032 1.10558 0.32939 1.01732 0.326254C0.929055 0.323118 0.841048 0.337552 0.75841 0.368715C0.675773 0.399879 0.600151 0.447151 0.535937 0.507788C0.471723 0.568424 0.420197 0.641215 0.384354 0.721933C0.348509 0.802651 0.329061 0.889688 0.327138 0.977984C0.325215 1.06628 0.340856 1.15408 0.373152 1.23628C0.405447 1.31849 0.453755 1.39345 0.515268 1.45683L5.74993 7.00016L0.515268 12.5422Z" fill="#464330"/>
</svg>
