<svg width="92" height="50" viewBox="0 0 92 50" fill="none" xmlns="http://www.w3.org/2000/svg">
<rect width="92" height="50" rx="10" fill="black" fill-opacity="0.5"/>
<path d="M59.125 25C59.1258 25.3183 59.0442 25.6314 58.8881 25.9088C58.732 26.1863 58.5068 26.4186 58.2344 26.5832L41.35 36.9121C41.0653 37.0864 40.7393 37.1816 40.4056 37.1878C40.0718 37.1939 39.7425 37.1109 39.4516 36.9473C39.1634 36.7861 38.9234 36.5512 38.7561 36.2666C38.5889 35.9819 38.5005 35.6579 38.5 35.3277V14.6723C38.5005 14.3421 38.5889 14.0181 38.7561 13.7334C38.9234 13.4488 39.1634 13.2138 39.4516 13.0527C39.7425 12.8891 40.0718 12.8061 40.4056 12.8122C40.7393 12.8184 41.0653 12.9136 41.35 13.0879L58.2344 23.4168C58.5068 23.5814 58.732 23.8137 58.8881 24.0912C59.0442 24.3686 59.1258 24.6817 59.125 25Z" fill="#E6E6E6"/>
</svg>
