<svg width="10" height="7" viewBox="0 0 10 7" fill="none" xmlns="http://www.w3.org/2000/svg">
<path d="M8.75009 0.0834112L1.25009 0.0834112C1.17415 0.0836496 1.09972 0.104592 1.0348 0.143986C0.969887 0.183379 0.916943 0.23973 0.881671 0.306975C0.846398 0.37422 0.830132 0.449811 0.834626 0.525613C0.839119 0.601414 0.8642 0.674554 0.907168 0.737162L4.65717 6.15383C4.81259 6.37841 5.18675 6.37841 5.34259 6.15383L9.09259 0.737162C9.13599 0.674685 9.16145 0.601508 9.16618 0.52558C9.17092 0.449653 9.15476 0.373879 9.11946 0.306492C9.08415 0.239105 9.03105 0.182681 8.96593 0.143352C8.90081 0.104022 8.82616 0.0832915 8.75009 0.0834112Z" fill="#464330" fill-opacity="0.8"/>
</svg>
